<svg xmlns="http://www.w3.org/2000/svg" width="88" height="90" viewBox="0 0 88 90" fill="none"><g clip-path="url(#clip0_140_769)"><path d="M43.6071 89.1964C67.6907 89.1964 87.2143 69.2291 87.2143 44.5982C87.2143 19.9673 67.6907 0 43.6071 0C19.5236 0 0 19.9673 0 44.5982C0 69.2291 19.5236 89.1964 43.6071 89.1964Z" fill="#11768C"></path><mask id="mask0_140_769" style="mask-type:luminance" maskUnits="userSpaceOnUse" x="40" y="19" width="8" height="9"><path d="M47.3563 19.6713H40.0007V27.194H47.3563V19.6713Z" fill="white"></path></mask><g mask="url(#mask0_140_769)"><path d="M46.3985 23.3944C46.3985 23.3944 45.7932 22.7868 44.7869 22.6899C45.7889 22.5908 46.3912 21.986 46.3912 21.986C46.7125 21.6573 46.7125 21.1246 46.3912 20.7959C46.2426 20.6439 46.0277 20.5863 45.8332 20.575C45.813 20.5737 45.7946 20.5657 45.7803 20.5529C45.7624 20.5374 45.7505 20.5146 45.7491 20.4891C45.738 20.29 45.6817 20.0701 45.533 19.9181C45.2117 19.5896 44.6908 19.5896 44.3695 19.9181C44.3695 19.9181 43.7569 20.5563 43.6765 21.6141C43.5962 20.5563 42.9835 19.9181 42.9835 19.9181C42.6623 19.5896 42.1414 19.5896 41.8202 19.9181C41.6714 20.0701 41.6151 20.2901 41.6039 20.4891C41.6026 20.5146 41.5907 20.5374 41.5729 20.5529C41.5585 20.5657 41.5401 20.5737 41.5199 20.575C41.3254 20.5863 41.1105 20.6439 40.9618 20.7959C40.9021 20.857 40.8535 20.9251 40.816 20.9977C40.6517 21.3155 40.7004 21.7183 40.9618 21.986C40.9618 21.986 41.5655 22.5921 42.5693 22.6901C41.5655 22.7883 40.9618 23.3944 40.9618 23.3944C40.6406 23.7231 40.6406 24.2557 40.9618 24.5844C41.1105 24.7364 41.3254 24.7941 41.5199 24.8053C41.5401 24.8065 41.5585 24.8145 41.5728 24.8274C41.5907 24.8428 41.6026 24.8656 41.6039 24.8913C41.6151 25.0902 41.6714 25.3101 41.8201 25.4621C42.1414 25.7907 42.6623 25.7907 42.9835 25.4621C42.9835 25.4621 43.3153 25.1165 43.5225 24.5123C43.5742 24.8773 43.6852 25.3721 43.9158 26.0023C44.0559 26.3851 44.2805 26.7261 44.5653 26.9886C44.6441 27.0612 44.7189 27.1204 44.7876 27.1644C44.8193 27.1848 44.8544 27.1944 44.8892 27.1944C44.9529 27.1944 45.0152 27.1619 45.0515 27.1027C45.1077 27.0111 45.0807 26.8903 44.9911 26.8328C44.941 26.8008 44.884 26.7552 44.8215 26.6977C44.5821 26.4772 44.3929 26.1893 44.2743 25.8652C44.1302 25.4712 44.0359 25.131 43.9745 24.8457C44.1653 25.2418 44.3767 25.4621 44.3767 25.4621C44.6981 25.7906 45.2188 25.7906 45.5403 25.4621C45.6889 25.3101 45.7453 25.0903 45.7563 24.8914C45.7574 24.8707 45.7653 24.8519 45.7778 24.8371C45.7929 24.8189 45.8153 24.8067 45.8402 24.8054C46.0348 24.794 46.2498 24.7363 46.3985 24.5843C46.7197 24.2558 46.7197 23.723 46.3985 23.3944ZM44.1288 22.7029C44.047 22.7139 43.9717 22.7449 43.9074 22.7911C43.7964 22.871 43.7191 22.9962 43.7004 23.141C43.6908 23.2165 43.6842 23.2903 43.6801 23.3629C43.6759 23.2903 43.6693 23.2164 43.6597 23.1409C43.649 23.0573 43.6186 22.9801 43.5735 22.9145C43.4954 22.8009 43.3728 22.7218 43.2313 22.7029C43.1937 22.6978 43.1565 22.6936 43.1196 22.6901C43.1565 22.6866 43.1937 22.6825 43.2313 22.6775C43.3721 22.6586 43.4942 22.5801 43.5722 22.4675L43.5735 22.4658C43.6186 22.4001 43.649 22.323 43.6597 22.2394C43.6669 22.1825 43.6725 22.1264 43.6765 22.0713C43.6806 22.1264 43.6861 22.1825 43.6934 22.2394C43.7041 22.323 43.7344 22.4001 43.7796 22.4658C43.8577 22.5793 43.9801 22.6584 44.1217 22.6775C44.1606 22.6826 44.1992 22.6869 44.2373 22.6905C44.2015 22.694 44.1654 22.698 44.1288 22.7029Z" fill="#5EAC24"></path><path d="M45.0507 27.1015C45.0145 27.1608 44.9522 27.1934 44.8884 27.1934C44.8536 27.1934 44.8186 27.1836 44.7869 27.1634C44.7182 27.1193 44.6434 27.0601 44.5646 26.9875C44.2798 26.7251 44.0551 26.384 43.9151 26.0013C43.769 25.6022 43.671 25.2575 43.6056 24.9656C43.4343 24.2015 43.487 23.7998 43.4907 23.7345C43.4962 23.6266 43.5866 23.5437 43.692 23.5498C43.7976 23.5556 43.8785 23.6478 43.8729 23.7558C43.8717 23.7768 43.777 24.4736 44.2486 25.7946C44.2567 25.8177 44.2652 25.8407 44.2737 25.8641C44.3922 26.1882 44.5814 26.476 44.8208 26.6967C44.8832 26.7541 44.9403 26.7995 44.9904 26.8318C45.0798 26.8891 45.107 27.01 45.0507 27.1015Z" fill="#6DC82A"></path><path d="M44.2487 25.7946C44.0932 25.5683 43.8766 25.1792 43.7774 24.6618C43.767 24.6073 43.691 24.6072 43.6805 24.6617C43.66 24.7686 43.6345 24.87 43.6056 24.9656C43.4343 24.2015 43.487 23.7998 43.4907 23.7345C43.4962 23.6266 43.5866 23.5437 43.692 23.5498C43.7976 23.5556 43.8785 23.6478 43.8729 23.7558C43.8717 23.7767 43.777 24.4736 44.2487 25.7946Z" fill="#5EAC24"></path><path d="M43.693 22.2389C43.7037 22.3226 43.7341 22.3996 43.7793 22.4653C43.8573 22.5789 43.9798 22.6579 44.1213 22.677C45.5161 22.864 46.3909 21.9855 46.3909 21.9855C46.7122 21.6568 46.7122 21.1242 46.3909 20.7955C46.2422 20.6434 46.0273 20.5858 45.8328 20.5745C45.8126 20.5733 45.7942 20.5652 45.7799 20.5525C45.762 20.5369 45.7501 20.5141 45.7488 20.4886C45.7377 20.2896 45.6813 20.0698 45.5327 19.9178C45.2113 19.5891 44.6905 19.5891 44.3692 19.9178C44.3692 19.9178 43.5101 20.8123 43.693 22.2389Z" fill="#6DC82A"></path><path d="M45.7798 20.5519L43.7793 22.4646C43.7342 22.399 43.7037 22.322 43.693 22.2385C43.5102 20.8118 44.3691 19.9172 44.3691 19.9172C44.6697 19.6097 45.1452 19.59 45.4682 19.8579C45.4904 19.8763 45.5119 19.896 45.5326 19.9172C45.6813 20.0693 45.7376 20.2891 45.7488 20.4881C45.7501 20.5137 45.7619 20.5364 45.7798 20.5519Z" fill="#3D7514"></path><path d="M43.6587 22.2385C43.648 22.322 43.6176 22.3992 43.5725 22.4648L43.5713 22.4665C43.4933 22.5792 43.3711 22.6576 43.2304 22.6765C41.8356 22.8634 40.9609 21.985 40.9609 21.985C40.6994 21.7173 40.6508 21.3145 40.815 20.9967C40.8525 20.9241 40.9012 20.856 40.9609 20.7949C41.1095 20.6429 41.3244 20.5853 41.5189 20.574C41.5392 20.5728 41.5575 20.5647 41.5718 20.5519C41.5898 20.5364 41.6016 20.5137 41.603 20.4881C41.6141 20.2891 41.6704 20.0693 41.8191 19.9172C42.1404 19.5886 42.6613 19.5886 42.9826 19.9172C42.9826 19.9172 43.8415 20.8118 43.6587 22.2385Z" fill="#3D7514"></path><path d="M43.6588 22.2389C43.6482 22.3226 43.6178 22.3996 43.5726 22.4653L43.5714 22.467C42.0427 22.5938 41.093 21.6139 41.093 21.6139C40.9289 21.4414 40.8362 21.2222 40.8152 20.9972C40.8526 20.9247 40.9012 20.8565 40.961 20.7955C41.1097 20.6434 41.3244 20.5858 41.5191 20.5745C41.5393 20.5733 41.5575 20.5652 41.572 20.5525C41.5898 20.5369 41.6017 20.5141 41.6031 20.4886C41.6142 20.2896 41.6706 20.0698 41.8192 19.9178C42.1405 19.5891 42.6614 19.5891 42.9827 19.9178C42.9827 19.9178 43.8417 20.8123 43.6588 22.2389Z" fill="#5EAC24"></path><path d="M43.6591 22.2389C43.6484 22.3226 43.6181 22.3996 43.5729 22.4653L41.5723 20.5525C41.5901 20.5369 41.602 20.5141 41.6034 20.4886C41.6145 20.2896 41.6708 20.0698 41.8195 19.9178C42.1408 19.5891 42.6617 19.5891 42.983 19.9178C42.983 19.9178 43.8419 20.8123 43.6591 22.2389Z" fill="#6DC82A"></path><path d="M45.7795 20.5526L43.7791 22.4653C43.8383 21.038 44.6706 20.1712 44.6706 20.1712C44.8895 19.9474 45.1811 19.8432 45.4678 19.8585C45.49 19.8769 45.5115 19.8966 45.5322 19.9177C45.6809 20.0698 45.7373 20.2896 45.7484 20.4887C45.7497 20.5142 45.7616 20.537 45.7795 20.5526Z" fill="#5EAC24"></path><path d="M44.1285 22.7019C44.0466 22.7129 43.9713 22.7439 43.9071 22.79C43.7961 22.87 43.7187 22.9952 43.7001 23.14C43.5173 24.5665 44.3762 25.461 44.3762 25.461C44.6976 25.7896 45.2184 25.7896 45.5398 25.461C45.6885 25.309 45.7448 25.0893 45.7558 24.8903C45.7571 24.8696 45.7649 24.8509 45.7774 24.8361C45.7926 24.8179 45.8149 24.8057 45.8399 24.8043C46.0345 24.793 46.2495 24.7353 46.3981 24.5833C46.7193 24.2548 46.7193 23.722 46.3981 23.3934C46.3981 23.3934 45.5234 22.5149 44.1285 22.7019Z" fill="#6DC82A"></path><path d="M45.7772 24.8361L43.907 22.7903C43.9712 22.7441 44.0464 22.7129 44.1281 22.7019C45.523 22.5149 46.3978 23.3934 46.3978 23.3934C46.6984 23.7009 46.7177 24.1871 46.4558 24.5175C46.4378 24.5401 46.4185 24.5622 46.3978 24.5833C46.2491 24.7353 46.0341 24.793 45.8396 24.8043C45.8146 24.8057 45.7922 24.8179 45.7772 24.8361Z" fill="#3D7514"></path><path d="M45.777 24.8363L43.9067 22.7904C45.3023 22.851 46.1498 23.7021 46.1498 23.7021C46.3686 23.9261 46.4707 24.2243 46.4556 24.5176C46.4377 24.5402 46.4183 24.5623 46.3977 24.5834C46.249 24.7354 46.034 24.7931 45.8394 24.8044C45.8145 24.8058 45.7921 24.818 45.777 24.8363Z" fill="#5EAC24"></path><path d="M43.6587 23.1405C43.648 23.0568 43.6177 22.9798 43.5725 22.9141C43.4944 22.8005 43.372 22.7215 43.2304 22.7024C41.8356 22.5154 40.9609 23.3939 40.9609 23.3939C40.6397 23.7226 40.6397 24.2552 40.9609 24.5839C41.1095 24.736 41.3244 24.7936 41.519 24.8049C41.5392 24.8061 41.5575 24.8142 41.5719 24.8269C41.5898 24.8425 41.6017 24.8653 41.603 24.8908C41.6142 25.0899 41.6705 25.3097 41.8192 25.4617C42.1404 25.7902 42.6614 25.7902 42.9826 25.4617C42.9826 25.4617 43.8416 24.5671 43.6587 23.1405Z" fill="#6DC82A"></path><path d="M43.9507 23.0978C43.9651 23.0481 43.977 23.025 43.9708 23.0732C43.969 23.087 43.9616 23.0944 43.9507 23.0978Z" fill="#6DC82A"></path><path d="M41.5723 24.8267L43.5727 22.914C43.6178 22.9797 43.6483 23.0566 43.6591 23.1402C43.8419 24.5668 42.983 25.4614 42.983 25.4614C42.6823 25.7689 42.2069 25.7886 41.8838 25.5208C41.8617 25.5024 41.8401 25.4826 41.8195 25.4614C41.6708 25.3094 41.6145 25.0895 41.6034 24.8906C41.602 24.865 41.5901 24.8421 41.5723 24.8267Z" fill="#3D7514"></path><path d="M41.5723 24.8265L43.5727 22.9138C43.5134 24.341 42.6812 25.2078 42.6812 25.2078C42.4622 25.4316 42.1707 25.536 41.8839 25.5206C41.8617 25.5023 41.8401 25.4824 41.8195 25.4613C41.6708 25.3093 41.6145 25.0894 41.6034 24.8904C41.602 24.8649 41.5901 24.842 41.5723 24.8265Z" fill="#5EAC24"></path></g><path d="M50.6627 28.5842C50.0271 30.6942 49.541 31.5347 48.5919 32.8197C46.7753 31.2081 45.4472 30.84 42.9054 30.4808C40.6207 30.7272 39.4771 31.3967 37.4969 32.8197C36.3342 31.3749 35.9072 30.4273 35.3953 28.5842L35.2408 29.9118C34.8373 28.4684 34.7049 27.6506 34.9008 26.1505L34.0664 27.794C33.8862 26.1968 33.8626 25.0383 33.881 22.7684C32.7656 25.1666 32.433 26.5763 32.4283 29.2164C33.3049 32.174 34.0061 33.5589 35.7043 35.4432C34.8802 36.5433 34.8219 37.286 34.9008 38.6672L30.5532 34.7824C29.5471 33.8834 28.3752 33.1994 27.1066 32.7707L26.21 32.4676C25.7223 32.3028 25.2138 32.2121 24.7005 32.1983L20.1034 32.0739C19.7909 32.0654 19.4784 32.0893 19.1706 32.1451L12.4942 33.357L5.16966 34.3053L2.45778 35.7683C2.41444 35.7916 2.41366 35.8548 2.4564 35.8793L5.16966 37.4344L4.51838 38.7923C4.43719 38.9615 4.51801 39.1653 4.69155 39.229L7.6421 40.3108L7.17087 41.3282C7.12487 41.4275 7.17078 41.5459 7.27084 41.586L11.5053 43.282L11.0754 44.2611C10.9467 44.5545 11.1148 44.8947 11.4221 44.9626L15.832 45.937L15.5759 47.6663C15.5479 47.8552 15.689 48.0261 15.8758 48.0297L20.6533 48.118L21.0997 49.5678C21.1453 49.7159 21.2892 49.8081 21.4393 49.7856L24.5474 49.319L25.2059 51.0026C25.2532 51.1234 25.3823 51.1878 25.5045 51.1515L27.947 50.4253L28.3208 51.835C28.3862 52.0815 28.6416 52.2205 28.878 52.138L31.1612 51.3419L32.1215 52.7109C32.156 52.7603 32.2201 52.7774 32.274 52.7518L33.9119 51.9741L34.6505 53.2422C34.7245 53.3694 34.8749 53.4269 35.0124 53.3807L36.7551 52.7959L37.2497 53.5861H37.7442L37.3424 56.6521L33.201 63.5426L33.5125 66.3611C33.5611 66.801 33.9664 67.1051 34.3913 67.0204L35.9825 66.7034L36.7362 67.7916C36.915 68.0496 37.2313 68.1673 37.5302 68.0868L39.3821 67.5884L40.2644 68.5337C40.5066 68.7933 40.8937 68.8437 41.1919 68.6546L43.1217 67.4304L45.0194 68.6496C45.3179 68.8414 45.7071 68.7918 45.9506 68.531L46.8304 67.5884L48.5998 68.0843C48.8934 68.1665 49.2065 68.0569 49.3892 67.8077L50.1991 66.7034L51.8676 66.9659C52.276 67.0302 52.657 66.7408 52.7148 66.3224L53.0423 63.9535L49.3956 57.6635L48.3756 53.5861H48.8701L49.3956 52.7959L50.9953 53.406C51.127 53.4563 51.2753 53.4091 51.3562 53.2915L52.2388 52.0058L53.9641 52.6936C54.0207 52.7161 54.0848 52.6933 54.1156 52.6397L54.8967 51.2787L57.5165 52.2295C57.6532 52.2791 57.8022 52.1982 57.8385 52.0545L58.2345 50.4885L60.7115 51.2165C60.8322 51.252 60.9597 51.1893 61.008 51.0707L61.696 49.3822L64.7425 49.8396C64.9268 49.8673 65.1025 49.7509 65.1533 49.5676L65.5282 48.2128L68.1502 48.706C68.1944 48.7142 68.2396 48.7143 68.2837 48.7061L70.5526 48.2841C70.7614 48.2454 70.8958 48.0355 70.8472 47.8242L70.4422 46.0634H72.4088C72.4571 46.0634 72.505 46.0538 72.5496 46.035L75.0575 44.982C75.2536 44.8997 75.3425 44.6663 75.2525 44.47L74.7072 43.282L78.6937 41.6915C78.8942 41.6115 78.9863 41.3743 78.8939 41.1754L78.4777 40.2792L81.4144 39.1283C81.6147 39.0498 81.7083 38.8143 81.6184 38.6151L81.0428 37.3396L83.9203 35.8682C83.9718 35.8419 83.9631 35.7641 83.9072 35.7503L73.8419 33.2622L67.3107 32.4663C66.8244 32.4071 66.3332 32.4028 65.8459 32.4534L58.5455 33.2123C57.6395 33.3064 56.7846 33.6865 56.0993 34.2998L51.2189 38.6672C51.215 37.1417 51.111 36.3616 50.4154 35.3484C52.3596 33.6378 53.1477 32.3477 53.7841 29.2164C53.7793 26.7034 53.3844 25.2935 52.0225 22.7684C52.445 25.0274 52.5487 26.2011 52.0225 27.794L51.1571 26.1505C51.5294 27.9294 51.4612 28.7525 50.8481 29.9118L50.6627 28.5842Z" fill="#1F4F5B" stroke="white" stroke-width="0.590015"></path><path d="M46.6992 35.3486C44.8829 35.9599 44.0735 36.5778 43.2687 38.5094C42.3858 36.8652 41.8338 36.07 39.8381 35.3486C37.7425 34.2266 36.7538 33.4679 36.0676 31.3661C36.1241 32.3745 36.3358 32.9804 36.9639 34.1159C35.7312 32.9476 35.1718 31.9264 34.5223 29.1219V30.8919C33.9586 29.5572 33.6191 28.7739 33.5334 27.1938C33.4 30.1622 33.7695 31.7215 36.0676 34.1159C37.162 35.0744 37.859 35.4632 39.22 35.9176C40.491 36.359 41.1095 36.7631 42.0016 37.814C42.6026 39.3431 42.8868 40.2318 43.2687 41.8915C43.577 40.2318 43.8207 39.3287 44.5048 37.814C45.3952 36.6481 46.0276 36.2548 47.3482 35.9176C48.6521 35.3579 49.3067 34.9548 50.377 34.1159C52.7088 31.6724 52.939 30.0937 52.9111 27.1938C52.66 28.7129 52.4788 29.5518 51.8604 30.9551V29.0902C51.4328 31.5852 50.7823 32.5676 49.4188 34.1159C49.8932 33.0856 50.1076 32.4829 50.377 31.3661C49.4165 33.3376 48.7276 34.312 46.6992 35.3486Z" fill="#FFF4F4"></path><path d="M46.15 35.1273C44.5662 35.4685 43.9558 35.8767 43.2449 36.8974C42.6054 35.9884 42.0481 35.5784 40.4942 35.1273C39.4888 34.9831 39.0824 34.8264 38.3618 34.4636C39.0655 34.9294 39.4524 35.2463 40.4942 35.6014C41.8718 36.3799 42.5032 37.0239 43.2758 38.5094C44.0076 37.0115 44.6218 36.3179 46.0264 35.6014C47.1673 35.2049 47.5096 34.9346 48.0617 34.4986L48.0661 34.4952C47.3322 34.8385 46.9173 34.9824 46.15 35.1273Z" fill="#5C7783"></path><path d="M39.944 37.7275L40.543 38.1744C40.6104 38.2247 40.6113 38.3286 40.539 38.3714C40.3593 38.4777 40.193 38.5033 39.9018 38.4543C39.8681 38.4486 39.8381 38.4281 39.8203 38.3982C39.6711 38.1475 39.6404 37.9763 39.7796 37.754C39.8151 37.6973 39.8907 37.6877 39.944 37.7275Z" fill="white"></path><path d="M38.042 37.0872L38.691 37.3717C38.4336 38.3302 38.4778 38.7733 39.1545 39.2682C40.0438 39.7743 40.4926 39.5122 41.2562 38.636C41.2562 39.5191 41.0785 39.9542 40.7657 40.2562C40.1277 40.8722 39.0791 41.1838 38.3325 40.7125C38.2779 40.6781 38.2228 40.6393 38.1657 40.5958C37.7162 40.2529 37.3424 39.7788 37.2331 39.2164C37.0881 38.4699 37.3742 37.8639 38.042 37.0872Z" fill="white"></path><path d="M37.8795 40.8467C36.6554 39.9369 36.6361 38.9886 37.1663 37.1566C36.3344 37.8951 36.1246 38.4457 36.1776 39.6538C36.3559 40.6679 36.6445 41.204 37.2579 41.6398C37.7359 41.9795 38.3142 42.1477 38.8956 42.179C40.3574 42.2576 41.0876 41.6622 41.7915 39.7331C40.6932 41.1378 39.8953 41.5833 38.6439 41.2275C38.3692 41.1494 38.1101 41.0182 37.8795 40.8467Z" fill="#5D7B86"></path><path d="M35.982 40.143C35.8424 38.9311 35.8139 38.2573 36.909 37.1911C36.4947 37.4415 36.2495 37.6498 36.0274 38.0274C35.8706 38.2939 35.7896 38.5995 35.7531 38.9084C35.6992 39.3659 35.6998 39.7202 35.7758 40.259C35.8667 40.6212 35.9448 40.8734 36.0581 41.1197C36.2208 41.4739 36.5002 41.7962 36.7839 42.059C37.1891 42.4344 37.651 42.6977 38.1858 42.814C38.2663 42.8314 38.3461 42.8462 38.4268 42.8586C39.0155 42.9494 39.627 42.8516 40.1573 42.5748C40.2973 42.5019 40.4339 42.419 40.5808 42.317C40.7512 42.1986 40.9072 42.0587 41.0426 41.8998C41.4445 41.4279 41.5716 41.0708 41.7291 40.4852C41.352 41.465 40.8856 41.8988 39.8964 42.3152C39.5951 42.4421 39.2746 42.5217 38.9488 42.528C38.1292 42.5437 37.5892 42.3121 36.7824 41.6821C36.2936 41.1905 36.1292 40.8479 35.982 40.143Z" fill="#8BA7B3"></path><path d="M46.2399 37.8536L45.641 38.3005C45.5735 38.3507 45.5727 38.4547 45.645 38.4975C45.8246 38.6037 45.991 38.6294 46.2821 38.5804C46.3159 38.5747 46.3458 38.5542 46.3636 38.5243C46.5128 38.2736 46.5435 38.1024 46.4044 37.8801C46.3689 37.8233 46.2932 37.8138 46.2399 37.8536Z" fill="white"></path><path d="M48.1411 37.2133L47.4921 37.4977C47.7495 38.4564 47.7053 38.8994 47.0285 39.3943C46.1393 39.9004 45.6906 39.6384 44.927 38.7621C44.927 39.6451 45.1046 40.0803 45.4174 40.3824C46.0554 40.9983 47.104 41.3099 47.8506 40.8386C47.9052 40.8042 47.9603 40.7654 48.0175 40.7219C48.4669 40.379 48.8407 39.9049 48.95 39.3425C49.095 38.596 48.809 37.99 48.1411 37.2133Z" fill="white"></path><path d="M48.3036 40.9728C49.5277 40.063 49.5469 39.1148 49.0168 37.2827C49.8486 38.0211 50.0586 38.5718 50.0056 39.7799C49.8272 40.794 49.5387 41.3301 48.9253 41.7659C48.4471 42.1055 47.869 42.2739 47.2875 42.3051C45.8257 42.3837 45.0956 41.7883 44.3916 39.8592C45.4899 41.2639 46.2878 41.7094 47.5392 41.3536C47.814 41.2755 48.0729 41.1442 48.3036 40.9728Z" fill="#5D7B86"></path><path d="M50.2009 40.2701C50.3405 39.0582 50.369 38.3845 49.2741 37.3183C49.6882 37.5687 49.9334 37.7769 50.1555 38.1544C50.3124 38.421 50.3934 38.7267 50.4298 39.0356C50.4838 39.4931 50.4832 39.8474 50.4072 40.3861C50.3162 40.7482 50.2381 41.0005 50.1249 41.2468C49.9621 41.6011 49.6827 41.9234 49.399 42.1861C48.9938 42.5615 48.5319 42.8248 47.9972 42.941C47.9167 42.9585 47.8369 42.9733 47.7562 42.9858C47.1675 43.0766 46.5559 42.9786 46.0256 42.702C45.8856 42.6289 45.749 42.5462 45.6022 42.4442C45.4317 42.3258 45.2757 42.1859 45.1405 42.027C44.7384 41.555 44.6113 41.1978 44.4539 40.6123C44.8309 41.5922 45.2973 42.0258 46.2866 42.4423C46.588 42.5692 46.9083 42.6489 47.2342 42.6551C48.0537 42.6709 48.5937 42.4393 49.4006 41.8093C49.8894 41.3177 50.0537 40.9751 50.2009 40.2701Z" fill="#8BA7B3"></path><path d="M39.4442 43.8198C40.6774 43.3762 41.128 43.0513 41.6076 42.3658C40.672 43.1678 40.0466 43.411 38.7334 43.4404C38.1031 43.4924 37.7911 43.5711 37.5281 44.0727C37.7754 44.6297 37.9997 44.8378 38.4243 45.1789L39.3206 45.9059L40.1859 46.538C39.2181 46.1772 38.7268 45.9089 37.8989 45.3686C39.1045 46.9479 39.9523 47.7674 41.7312 49.1299L43.2147 47.6127L44.8217 49.1299C46.5588 47.7665 47.3601 46.9409 48.5304 45.3686C47.6982 45.9602 47.1955 46.2287 46.2125 46.538L47.1706 45.9059L48.0668 45.1789C48.5009 44.8326 48.7034 44.6027 48.9321 44.0727C48.663 43.6012 48.3582 43.469 47.5723 43.4404C46.3961 43.3571 45.7746 43.183 44.8217 42.3658C45.4347 43.1289 45.9277 43.4164 46.9233 43.8198C45.7037 43.5511 45.1433 43.2079 44.3272 42.3026L45.2545 43.8198L44.08 42.4922L44.2345 43.5036L43.8328 42.7135L43.2147 44.2623L42.6275 42.7135L42.2257 43.5036L42.3493 42.4922C41.938 43.0783 41.6931 43.3493 41.2368 43.7566C41.6535 43.2196 41.8545 42.9056 42.1021 42.3026C41.2381 43.2419 40.6857 43.6348 39.4442 43.8198Z" fill="white"></path><path d="M41.4212 47.0115C40.5249 46.8888 40.0236 46.7785 39.1343 46.411C39.3409 46.6401 39.5088 46.7692 39.724 46.8681C39.9811 46.9862 40.2637 47.0335 40.545 47.0499C40.858 47.0682 41.0934 47.0526 41.4212 47.0115Z" fill="#1F4F5B"></path><path d="M45.0686 47.0115C45.9648 46.8888 46.4662 46.7785 47.3556 46.411C47.149 46.6401 46.981 46.7692 46.7659 46.8681C46.5088 46.9862 46.2261 47.0335 45.9448 47.0499C45.6318 47.0682 45.3964 47.0526 45.0686 47.0115Z" fill="#1F4F5B"></path><path d="M42.0597 47.1287C41.4151 47.3931 41.0392 47.5131 40.3088 47.6111C40.4906 47.671 40.6306 47.6962 40.7739 47.6942C41.0557 47.6904 41.3264 47.5817 41.5757 47.4475C41.7477 47.3547 41.8845 47.2613 42.0597 47.1287Z" fill="#1F4F5B"></path><path d="M44.4055 47.1292C45.0501 47.3937 45.4261 47.5136 46.1565 47.6116C45.9747 47.6715 45.8347 47.6968 45.6914 47.6947C45.4096 47.6908 45.139 47.5823 44.8896 47.448C44.7175 47.3552 44.5809 47.2618 44.4055 47.1292Z" fill="#1F4F5B"></path><path d="M43.003 47.27C42.4153 47.6647 42.0522 47.8503 41.2664 48.0348C41.4339 48.0784 41.5693 48.1025 41.6906 48.1091C42.1042 48.1316 42.4965 47.8949 42.7726 47.5791C42.8518 47.4887 42.9229 47.3907 43.003 47.27Z" fill="#1F4F5B"></path><path d="M43.4675 47.27C44.0552 47.6647 44.4183 47.8503 45.2042 48.0348C45.0368 48.0784 44.9013 48.1025 44.7799 48.1091C44.3663 48.1316 43.9741 47.8949 43.698 47.5791C43.6188 47.4887 43.5477 47.3907 43.4675 47.27Z" fill="#1F4F5B"></path><path d="M40.0007 45.5258L41.2194 46.3953C41.2628 46.4263 41.3216 46.3909 41.3163 46.3373L41.2542 45.702C41.2484 45.6429 41.3183 45.609 41.3594 45.651L42.275 46.5873C42.3139 46.6272 42.3805 46.599 42.3805 46.5426V45.9313C42.3805 45.8749 42.447 45.8468 42.486 45.8866L43.2315 46.6489C43.2562 46.6742 43.2965 46.6736 43.3204 46.6473L44.0041 45.8963C44.0423 45.8543 44.1112 45.8819 44.1112 45.9393V46.5426C44.1112 46.599 44.1778 46.6272 44.2167 46.5873L45.1492 45.6336C45.1881 45.5939 45.2546 45.6221 45.2546 45.6784V46.3475C45.2546 46.3997 45.3129 46.4294 45.3535 46.3981L46.4909 45.5258" stroke="#2E5D67" stroke-width="0.177004"></path><path d="M34.5608 49.7425L35.0631 47.7388C36.1641 48.72 36.5902 49.4188 36.6828 50.5254C36.7226 51.0001 36.6251 51.4851 36.3731 51.886C36.0519 52.3969 35.7043 52.593 35.1017 52.6651C35.0783 52.668 35.055 52.6564 35.0425 52.636C34.6407 51.9779 34.4561 51.5088 34.4388 50.6809C34.4321 50.3641 34.4838 50.0494 34.5608 49.7425Z" fill="#E3E7D6"></path><path d="M32.1403 49.3565L33.363 46.411C34.1237 47.8966 34.3859 48.7749 34.1567 49.995C34.0947 50.3254 33.9688 50.6424 33.7792 50.9173C33.4185 51.4406 33.0485 51.6898 32.3431 51.8791C31.9919 51.2505 31.8619 50.832 31.9146 50.1974C31.9388 49.9062 32.0286 49.6256 32.1403 49.3565Z" fill="#E3E7D6"></path><path d="M29.6961 47.8621C30.4031 46.9074 30.8951 46.1135 31.6175 44.831C32.2701 46.4631 32.3498 47.4988 31.6921 49.0668C31.4775 49.5788 31.1695 50.054 30.7446 50.4024C30.2232 50.8299 29.7042 51.039 28.8979 51.279C28.7394 50.5988 28.7015 50.1138 28.8229 49.5424C28.9562 48.9162 29.3178 48.373 29.6961 47.8621Z" fill="#E3E7D6"></path><path d="M26.5342 46.986C27.7679 45.7386 28.4783 44.9346 29.5598 43.6299C29.8967 45.8076 30.0662 47.0809 28.5997 48.7643C28.4014 48.9919 28.173 49.191 27.9257 49.3611C27.2372 49.8348 26.6949 50.071 25.6966 50.2359C25.3892 49.3527 25.3953 48.7865 25.7488 48.0377C25.9376 47.6382 26.2257 47.298 26.5342 46.986Z" fill="#E3E7D6"></path><path d="M22.5252 46.3318C24.3717 44.8541 25.5424 43.8475 27.4422 42.1122C27.4709 44.7656 27.1351 46.142 24.8153 48.0544C23.5892 48.8135 22.8878 49.0367 21.6011 48.8446C21.3689 48.3107 21.3275 47.9351 21.5057 47.5011C21.7059 47.0134 22.1179 46.6578 22.5252 46.3318Z" fill="#E3E7D6"></path><path d="M18.9982 44.0239C21.2332 43.035 22.8493 42.2386 25.4127 40.9743C24.4076 44.1118 23.4879 45.5641 21.3018 46.716C20.8178 46.971 20.2892 47.1257 19.7496 47.1993C18.627 47.3524 17.8114 47.3537 16.5737 47.0746C16.6328 46.5732 16.7108 46.1865 16.8447 45.8395C17.1982 44.9246 18.1155 44.4146 18.9982 44.0239Z" fill="#E3E7D6"></path><path d="M15.3395 42.0498C17.7983 41.57 19.6782 40.9895 22.5384 39.8365C21.1767 42.5298 19.8275 43.6843 15.77 44.7357C14.2082 44.9236 13.3633 44.9045 11.9995 44.2932C12.473 42.9118 13.9336 42.3241 15.3395 42.0498Z" fill="#E3E7D6"></path><path d="M12.6531 39.6461C15.0088 39.4801 16.8654 39.0814 19.6333 38.1932C18.4075 41.04 16.7332 41.9462 11.8761 42.2706C10.1809 42.1741 9.35132 41.9931 8.29102 41.2275C9.23488 39.8868 11.0332 39.7602 12.6454 39.6466L12.6531 39.6461Z" fill="#E3E7D6"></path><path d="M8.72302 34.5276L16.913 33.8954C14.4809 35.5902 12.7701 36.2653 8.90845 36.835C6.35015 36.8855 5.03362 36.8138 3.85346 35.9139C3.81774 35.8866 3.82265 35.8304 3.86194 35.809C5.65534 34.8277 6.76237 34.7 8.72302 34.5276Z" fill="#E3E7D6"></path><path d="M5.23108 36.1081C5.51983 35.4687 5.9021 35.1608 6.62183 34.7806C5.33051 34.9601 4.61319 35.1776 3.78471 35.8324C3.7512 35.8589 3.75412 35.9115 3.78988 35.9346C5.10803 36.788 5.96734 36.9455 7.57991 36.8668C6.62539 36.6581 6.08627 36.5496 5.23108 36.1081Z" fill="#8BA7B2"></path><path d="M3.77808 35.8865C9.31016 36.8348 12.115 36.0684 16.8821 33.9268" stroke="black" stroke-width="0.0590015"></path><path d="M76.7051 34.6758L68.5642 33.564C70.8973 35.3987 72.5673 36.1731 76.3907 36.9685C78.9418 37.1691 80.2603 37.1747 81.489 36.3455C81.5262 36.3205 81.5244 36.2641 81.4864 36.2403C79.751 35.1555 78.6529 34.9631 76.7051 34.6758Z" fill="#E3E7D6"></path><path d="M80.1024 36.4581C79.85 35.8028 79.4856 35.4729 78.7884 35.0511C80.0676 35.306 80.7715 35.5654 81.5619 36.2676C81.5939 36.296 81.588 36.3485 81.5509 36.3695C80.1871 37.1442 79.3204 37.2509 77.7148 37.0776C78.6795 36.9253 79.2238 36.8487 80.1024 36.4581Z" fill="#8BA7B2"></path><path d="M81.5664 36.3227C75.9902 36.9448 73.233 36.015 68.594 33.5972" stroke="black" stroke-width="0.0590015"></path><path d="M12.1852 36.8657L16.7901 36.2968C16.6295 37.5386 16.0079 38.0848 14.4104 38.9202C12.5505 39.5796 11.3354 39.8326 8.322 39.7104C7.02364 39.5342 6.38808 39.3434 5.4965 38.8224C5.46894 38.8063 5.45789 38.7708 5.47121 38.7414C5.79731 38.0206 6.1438 37.6297 6.71454 37.3541C7.32235 37.0605 8.01363 37.0341 8.68582 37.0369C9.81798 37.0417 10.7301 37.0019 12.1852 36.8657Z" fill="#E3E7D6"></path><path d="M6.28228 38.8888C6.80297 37.9259 7.23958 37.4884 8.50747 37.024C6.71674 37.0239 6.04812 37.3053 5.46824 38.7428C5.45655 38.7718 5.46771 38.806 5.49424 38.8216C6.36248 39.3357 6.88613 39.461 7.82754 39.6474C7.20092 39.403 6.84409 39.3126 6.28228 38.8888Z" fill="#83A0AE"></path><path d="M5.47949 38.7941C10.2043 39.4502 12.6704 38.7723 16.76 36.3286" stroke="black" stroke-width="0.0590015"></path><path d="M73.3663 36.5445L68.8625 35.4094C68.8749 36.662 69.4273 37.2811 70.9141 38.3083C72.6823 39.1932 73.8584 39.5948 76.8642 39.8468C78.1738 39.8327 78.8273 39.7219 79.774 39.3152C79.8033 39.3026 79.8184 39.2687 79.8087 39.2379C79.5704 38.4821 79.2726 38.0511 78.7388 37.7068C78.1702 37.3401 77.4872 37.2283 76.8195 37.1479C75.6951 37.0124 74.7945 36.8599 73.3663 36.5445Z" fill="#E3E7D6"></path><path d="M78.9863 39.2829C78.5834 38.2625 78.2018 37.7742 76.9983 37.1561C78.7758 37.3779 79.4062 37.74 79.8116 39.2387C79.8197 39.2689 79.8047 39.3015 79.7765 39.3138C78.8537 39.7166 78.3191 39.7761 77.3626 39.8445C78.0135 39.6795 78.3784 39.634 78.9863 39.2829Z" fill="#83A0AE"></path><path d="M79.7947 39.2886C75.0271 39.3548 72.6593 38.3764 68.8892 35.4443" stroke="black" stroke-width="0.0590015"></path><path d="M49.4882 51.0858C49.3299 49.4403 49.7886 48.7331 50.9735 47.7388C51.179 48.6034 51.3273 49.1291 51.5729 49.893C51.6459 50.1198 51.6811 50.3585 51.6661 50.5968C51.6041 51.5823 51.4514 52.1111 50.9735 52.7328C50.3274 52.574 49.9838 52.366 49.6373 51.6374C49.5553 51.4648 49.5066 51.2768 49.4882 51.0858Z" fill="#E3E7D6"></path><path d="M50.5394 52.0377C51.1505 51.6174 51.3632 51.1822 51.652 50.2677C51.7091 51.355 51.6363 51.926 51.057 52.7326C51.0431 52.7521 51.0188 52.7619 50.9955 52.7572C50.1841 52.5962 49.8542 52.4 49.5195 51.3107C49.8481 51.7701 49.9881 51.9362 50.5394 52.0377Z" fill="#94ACB6"></path><path d="M50.9405 47.8015C49.8911 49.8331 49.833 50.9982 51.0025 52.7008" stroke="black" stroke-width="0.0590015"></path><path d="M52.0494 50.1343C51.7525 49.0633 52.0038 48.1488 52.8501 46.4738C53.2594 47.8306 53.5551 48.5907 54.0769 49.5131C54.2403 49.8019 54.3443 50.1276 54.3211 50.4604C54.2822 51.0213 54.1502 51.4119 53.8649 51.9561C53.8502 51.9841 53.8171 51.9965 53.7883 51.985C53.1947 51.7459 52.8405 51.5106 52.4584 50.9779C52.2758 50.7233 52.1336 50.4381 52.0494 50.1343Z" fill="#E3E7D6"></path><path d="M53.227 51.1208C53.8058 50.6524 53.9206 50.2545 54.0306 49.4139C54.5021 50.3319 54.4809 50.8685 53.8425 51.9579C53.8266 51.985 53.7926 51.9961 53.7644 51.9831C52.8676 51.5732 52.5518 51.2217 52.1763 50.4886C52.5527 50.897 52.7201 51.1017 53.227 51.1208Z" fill="#8EAAB5"></path><path d="M53.8026 52.0374C52.4303 50.3021 52.1676 49.1196 52.8444 46.5376" stroke="black" stroke-width="0.0590015"></path><path d="M54.696 49.5153C53.9663 47.6539 54.005 46.6432 54.6309 45.0831C55.4233 46.5161 55.8861 47.3072 56.8562 48.6232C57.6476 49.6069 57.7256 50.2474 57.3694 51.4676C57.3593 51.5021 57.3226 51.521 57.2893 51.5089C56.2408 51.1263 55.6667 50.8181 55.1035 50.1937C54.9262 49.9971 54.7933 49.7636 54.696 49.5153Z" fill="#E3E7D6"></path><path d="M58.1519 49.2241C56.531 47.8783 56.3598 46.5774 56.7303 43.756C57.9715 45.2219 58.7106 46.0438 60.0387 47.3371C60.1402 47.436 60.2352 47.5428 60.3169 47.6594C60.9916 48.6221 61.1119 49.2759 60.5626 50.3304C59.4739 50.1334 58.9417 49.8969 58.1519 49.2241Z" fill="#E3E7D6"></path><path d="M61.6345 48.3075C59.1757 46.5655 58.7704 45.1355 58.7913 42.2388C60.5183 43.8599 61.496 44.7448 63.3035 46.1581C64.703 47.1418 65.1687 47.7387 64.5864 48.9699C64.5769 48.99 64.5568 49.0039 64.5349 49.0055C63.3102 49.0937 62.6737 48.9395 61.6345 48.3075Z" fill="#E3E7D6"></path><path d="M73.6896 39.8554C70.1245 39.237 68.4931 38.6234 65.7749 37.3896C67.2756 40.3525 68.6853 41.6199 73.4268 42.3379C74.9525 42.39 75.7015 42.2676 76.7627 41.6581C76.199 40.2513 75.4529 39.9374 73.6896 39.8554Z" fill="#E3E7D6"></path><path d="M66.1648 47.4655C63.3497 46.4727 62.2338 45.014 61.1404 41.4169C64.2552 43.0803 65.949 43.8846 68.7046 44.9756C68.8314 45.0257 68.9471 45.1032 69.0391 45.2054C69.7007 45.9415 69.9426 46.4846 69.919 47.5886C69.9183 47.62 69.8946 47.6464 69.8642 47.65C68.8656 47.7672 68.2176 47.7808 67.2664 47.6989C66.8916 47.6666 66.5204 47.5909 66.1648 47.4655Z" fill="#E3E7D6"></path><path d="M70.8435 45.0523C66.2404 43.6415 64.578 42.6169 63.8589 40.2163C67.2947 41.592 69.3111 42.1944 73.0102 42.7193C73.1277 42.736 73.2387 42.7901 73.3223 42.8761C73.9009 43.4715 74.1329 43.8848 74.3222 44.6192C74.3301 44.6499 74.314 44.682 74.2853 44.6937C73.1207 45.169 72.3792 45.2936 70.8435 45.0523Z" fill="#E3E7D6"></path><path d="M56.4422 50.5516C56.918 49.9322 56.9895 49.579 56.9676 48.75C57.6223 49.6132 57.7422 50.1691 57.3863 51.4699C57.3772 51.5036 57.3423 51.5235 57.3096 51.5137C56.2155 51.1873 55.6527 50.9041 55.0205 50.1091C55.488 50.4336 55.8334 50.536 56.4422 50.5516Z" fill="#9BAFB6"></path><path d="M59.6862 49.5086C60.1582 48.9855 60.2907 48.5604 60.2425 47.5488C61.0259 48.5531 61.1426 49.1552 60.6024 50.289C60.5907 50.3134 60.5643 50.3278 60.538 50.3239C59.4767 50.1709 58.9184 49.9845 58.1409 49.224C58.6985 49.4341 59.047 49.4785 59.6862 49.5086Z" fill="#9BAFB6"></path><path d="M64.3852 47.0429L63.4272 46.221C63.8407 47.1289 63.8176 47.6864 63.5199 48.5284C62.8332 48.6392 62.447 48.5971 61.7583 48.402C62.6864 48.8708 63.2198 49.1241 64.5934 49.0367C64.6169 49.0352 64.6383 49.0197 64.647 48.9972C64.9705 48.1634 64.903 47.5724 64.3852 47.0429Z" fill="#94ADB8"></path><path d="M74.8382 39.9718L73.718 39.8365C74.8886 40.4838 75.4135 40.9454 75.7148 41.7746C75.0561 42.0971 74.6549 42.1959 73.9292 42.3465C75.0889 42.335 75.7215 42.2067 76.7563 41.735C76.7845 41.7222 76.7993 41.6897 76.7904 41.6595C76.5884 40.9803 76.2868 40.5698 75.5518 40.1816C75.3302 40.0646 75.0859 40.0018 74.8382 39.9718Z" fill="#88A4B0"></path><path d="M72.9385 42.6768L71.4623 42.4915C72.2855 43.0993 72.5551 43.5551 72.7913 44.5143C72.1447 44.9253 71.6791 44.9705 70.8535 45.0508L70.8442 45.0518C72.127 45.2703 72.9763 45.2522 74.2897 44.6926C74.3168 44.681 74.3324 44.6511 74.3264 44.6218C74.2011 44.0088 74.0177 43.5479 73.4277 42.9203C73.2984 42.7827 73.1239 42.7002 72.9385 42.6768Z" fill="#8AA5B0"></path><path d="M68.7386 45L68.0005 44.6727C68.5884 45.4437 68.7705 46.057 68.6828 47.2415C68.0268 47.5581 67.6132 47.5575 66.8569 47.6439C68.0755 47.818 68.7633 47.9595 69.8506 47.6981C69.8722 47.6929 69.8897 47.676 69.8957 47.6542C70.0924 46.9368 69.9591 46.3512 69.1208 45.2937C69.0191 45.1653 68.8867 45.0658 68.7386 45Z" fill="#94ADB8"></path><path d="M65.8137 37.4346C68.7064 40.684 71.0687 41.3078 76.6534 41.7333" stroke="black" stroke-width="0.0590015"></path><path d="M63.9211 40.2791C67.4768 43.2872 69.7418 44.2832 74.3364 44.6726" stroke="black" stroke-width="0.0590015"></path><path d="M61.1404 41.4169C63.183 45.218 65.2244 46.494 69.8866 47.612" stroke="black" stroke-width="0.0590015"></path><path d="M54.6315 45.1465C54.417 47.9685 55.0638 49.4101 57.3078 51.4681" stroke="black" stroke-width="0.0590015"></path><path d="M58.7905 42.3026C59.7598 45.7213 61.2388 47.075 64.6316 49.0351" stroke="black" stroke-width="0.0590015"></path><path d="M56.7515 43.8192C57.0517 46.6019 57.8903 47.9734 60.5219 50.2989" stroke="black" stroke-width="0.0590015"></path><path d="M10.5341 39.8958L11.3815 39.7417C10.1527 40.2256 9.72308 40.5709 9.3109 41.3853C10.0005 41.8518 10.4693 41.9671 11.227 42.2387C10.0735 42.0642 9.40362 42.0491 8.29102 41.2273C8.57104 40.6445 8.87472 40.5039 9.48782 40.2272C9.82291 40.076 10.1735 39.9614 10.5341 39.8958Z" fill="#83A0AE"></path><path d="M19.602 38.256C16.0764 41.0434 13.4794 41.7253 8.32153 41.2587" stroke="black" stroke-width="0.0590015"></path><path d="M13.6375 44.1666C13.7424 43.2801 14.0697 42.7842 14.9665 42.1122L14.4131 42.2536C14.2055 42.3068 14.0027 42.3777 13.8068 42.4659C13.489 42.6089 13.1861 42.7863 12.9109 43.0026C12.4837 43.3384 12.1858 43.6382 11.9995 44.3247C13.4026 44.9298 14.3106 45.0805 15.7082 44.7672C14.8903 44.7505 14.343 44.7486 13.6375 44.1666Z" fill="#83A0AE"></path><path d="M22.5079 39.8997C19.4516 42.6221 17.1357 43.5971 12.0928 44.2932" stroke="black" stroke-width="0.0590015"></path><path d="M35.612 52.0693C34.9453 51.5883 34.7068 51.1741 34.4376 50.2677C34.4342 51.5485 34.5255 52.1681 35.1483 52.7964C35.954 52.6656 36.3277 52.2881 36.6008 51.4371C36.2504 51.8006 35.988 51.9093 35.612 52.0693Z" fill="#8BA7B2"></path><path d="M32.8974 51.1208C32.2755 50.6595 32.2475 50.2376 32.1185 49.4139C31.7074 50.4004 31.6472 50.9273 32.3102 51.9425C33.2914 51.6073 33.742 51.3407 34.0038 50.4886C33.6448 50.8626 33.3719 51.0049 32.8974 51.1208Z" fill="#8BA7B2"></path><path d="M29.9286 50.3304C29.3456 49.7562 29.2284 49.2498 29.3376 48.3707C28.613 49.3956 28.511 50.0882 28.9358 51.3103C30.0793 50.9942 30.6149 50.6721 31.3464 49.7614C30.8376 50.1455 30.5879 50.3314 29.9286 50.3304Z" fill="#8BA7B2"></path><path d="M17.9026 46.8849C17.8248 45.7389 18.0415 45.0881 18.6445 44.1666L18.0908 44.4674C17.8017 44.6245 17.5277 44.8135 17.3057 45.0594C16.7441 45.6813 16.6232 46.1523 16.5737 47.0745C17.8681 47.3452 18.6135 47.3906 19.8806 47.1693C19.1608 47.0716 18.8094 47.1613 17.9026 46.8849Z" fill="#8BA7B2"></path><path d="M25.3814 40.9743C23.2991 44.5933 21.0698 45.8551 16.6042 47.043" stroke="black" stroke-width="0.0590015"></path><path d="M22.1715 46.6398L22.8476 46.0636C22.4646 47.0591 22.4575 47.593 22.7548 48.3709C23.4982 48.4802 23.8882 48.3783 24.6402 48.1813C23.7129 48.845 22.9712 49.0031 21.6114 48.845C21.2211 48.1825 21.3016 47.7335 21.7238 47.121C21.849 46.9393 22.0045 46.7821 22.1715 46.6398Z" fill="#8BA7B2"></path><path d="M21.6418 48.8132C24.9273 47.169 26.1861 45.8036 27.3593 42.2388" stroke="black" stroke-width="0.0590015"></path><path d="M26.6604 49.4768C26.0271 48.8128 25.9848 48.3394 26.1351 47.4222C25.3153 48.4073 25.2267 49.0341 25.7024 50.2669C26.9339 50.1456 27.4847 49.891 28.2366 49.1291C27.6494 49.3774 27.3314 49.561 26.6604 49.4768Z" fill="#8BA7B2"></path><path d="M35.0554 47.7388C36.361 49.8974 36.2248 50.9603 35.0554 52.7012" stroke="black" stroke-width="0.0590015"></path><path d="M33.3858 46.5376C33.9176 48.8099 33.6558 50.0047 32.335 51.9425" stroke="black" stroke-width="0.0590015"></path><path d="M31.5934 44.9571C31.5912 47.8245 31.0106 49.3181 28.9045 51.2787" stroke="black" stroke-width="0.0590015"></path><path d="M29.5232 43.6926C29.0328 46.2973 28.2663 47.7052 25.7527 50.2038" stroke="black" stroke-width="0.0590015"></path><path d="M46.614 57.3155C46.893 57.0257 46.9439 56.785 46.9231 56.2725C48.7154 58.5223 49.7059 59.8459 51.4044 62.4992C52.2741 63.8773 52.5986 64.6828 52.2471 65.99C52.2078 66.1359 52.0816 66.2402 51.9339 66.247C50.8441 66.2974 50.2103 65.8734 49.241 64.1745C48.1826 61.5729 47.6102 60.0634 46.614 57.3155Z" fill="#EFEED9"></path><path d="M45.7798 58.0434L45.0999 58.2646C45.297 61.025 45.5783 62.5385 46.336 65.1868C47.0489 66.8822 47.6067 67.302 48.6256 67.3355C48.8008 67.3413 48.9697 67.2608 49.0727 67.1159C49.3896 66.6703 49.5095 66.2234 49.5188 65.3288C49.5198 65.2355 49.4987 65.1421 49.4596 65.0579C48.0726 62.0669 47.2656 60.4344 45.7798 58.0434Z" fill="#EFEED9"></path><path d="M43.2448 65.1544C43.2094 62.2139 43.1455 60.3911 43.6937 58.937C43.747 58.7958 43.9142 58.7417 44.0303 58.8356C44.3795 59.1179 44.5518 59.4736 44.7591 60.1604L46.392 65.7963C46.4564 66.0186 46.4739 66.2546 46.423 66.4805C46.2444 67.274 45.9702 67.5724 45.4642 67.8215C45.3494 67.8781 45.2168 67.8855 45.0953 67.8463C43.6982 67.395 43.3292 66.7393 43.2448 65.1544Z" fill="#EFEED9"></path><path d="M39.5293 57.3155C39.2504 57.0257 39.1994 56.785 39.2202 56.2725C37.428 58.5223 36.4376 59.8459 34.7389 62.4992C33.8693 63.8773 33.5448 64.6828 33.8963 65.99C33.9355 66.1359 34.0618 66.2402 34.2094 66.247C35.2992 66.2974 35.933 65.8734 36.9024 64.1745C37.9608 61.5729 38.5331 60.0634 39.5293 57.3155Z" fill="#EFEED9"></path><path d="M40.3643 58.0434L41.0442 58.2646C40.8471 61.025 40.5658 62.5385 39.808 65.1868C39.0952 66.8822 38.5374 67.302 37.5185 67.3355C37.3433 67.3413 37.1744 67.2608 37.0713 67.1159C36.7544 66.6703 36.6346 66.2234 36.6253 65.3288C36.6243 65.2355 36.6454 65.1421 36.6845 65.0579C38.0715 62.0669 38.8785 60.4344 40.3643 58.0434Z" fill="#EFEED9"></path><path d="M42.8983 65.1544C42.9337 62.2139 42.9976 60.3911 42.4492 58.937C42.396 58.7958 42.2287 58.7417 42.1127 58.8356C41.7635 59.1179 41.5911 59.4736 41.3838 60.1604L39.751 65.7963C39.6867 66.0186 39.6692 66.2546 39.72 66.4805C39.8985 67.274 40.1728 67.5724 40.6788 67.8215C40.7936 67.8781 40.9262 67.8855 41.0477 67.8463C42.4447 67.395 42.8138 66.7393 42.8983 65.1544Z" fill="#EFEED9"></path><path d="M44.9754 66.6087C44.1492 66.4346 43.7623 66.1735 43.2756 65.2812C43.2756 66.7575 43.7984 67.4623 45.1423 67.8498C45.2728 67.8874 45.4136 67.8708 45.5301 67.8001C46.0811 67.4658 46.4589 67.0191 46.4589 66.1346L46.3044 65.5656L46.1499 64.9967C45.9333 65.7066 45.5955 66.1329 44.9754 66.6087Z" fill="#89A5B1"></path><path d="M48.3146 66.197C47.3622 66.1443 46.9014 65.8774 46.3367 65.1224C46.8325 66.658 47.3501 67.3445 48.6165 67.3698C48.7813 67.3731 48.944 67.3111 49.0477 67.1801C49.5448 66.552 49.6531 65.4296 49.4581 65.0592L49.149 64.4269C48.9895 65.2783 48.8255 65.6815 48.3146 66.197Z" fill="#89A5B1"></path><path d="M51.2497 64.712C51.5195 64.0386 51.5648 63.4748 51.4661 62.531C52.4718 63.8876 52.6043 64.8908 52.2032 66.1485C52.1877 66.1973 52.1439 66.2313 52.0938 66.2341C50.9237 66.2991 50.2669 66.1463 49.2717 64.2062C50.0506 64.7741 50.4845 64.8812 51.2497 64.712Z" fill="#89A5B1"></path><path d="M41.1962 66.6083C42.0225 66.4341 42.4094 66.1729 42.8961 65.2808C42.8961 66.7546 42.375 67.4595 41.0359 67.8475C40.9 67.8868 40.7535 67.8782 40.6268 67.8141C40.0385 67.5163 39.6611 67.0182 39.6611 66.1341L39.8158 65.5652L39.9703 65.0595C40.1867 65.7694 40.5762 66.1323 41.1962 66.6083Z" fill="#89A5B1"></path><path d="M37.8348 66.1973C38.7872 66.1445 39.2478 65.8776 39.8127 65.1226C39.3115 66.675 38.7878 67.3598 37.4909 67.3706C37.3536 67.3718 37.2181 67.3203 37.1288 67.2137C36.6085 66.5928 36.4927 65.4364 36.6913 65.0594L36.9707 64.3955C37.1302 65.2469 37.3238 65.6817 37.8348 66.1973Z" fill="#89A5B1"></path><path d="M34.922 64.712C34.6522 64.0386 34.607 63.4748 34.7057 62.531C33.7669 63.9863 33.5579 64.9471 33.9515 66.1108C33.9826 66.2028 34.0658 66.2661 34.1608 66.2718C35.2434 66.3372 35.9274 66.1023 36.9001 64.2062C36.1212 64.7741 35.6872 64.8812 34.922 64.712Z" fill="#89A5B1"></path><path d="M43.0884 57.2998C43.0748 55.7992 43.0088 55.304 42.7539 55.3251C42.3941 55.3131 42.231 56.0089 41.9731 57.1631C41.9352 57.3331 41.9398 57.5126 42.0055 57.6735C42.1052 57.9177 42.2161 58.0803 42.4054 58.2526C42.4748 58.3158 42.5805 58.3098 42.645 58.2413C42.8508 58.0225 42.9673 57.8438 43.0571 57.5418C43.0804 57.4637 43.0892 57.3814 43.0884 57.2998Z" fill="#F6F1DD"></path><path d="M41.3453 58.0473C41.8214 57.2238 41.9763 56.6531 41.8976 55.5663C41.894 55.5165 41.8378 55.4911 41.7993 55.522C41.4037 55.8399 41.201 56.0592 40.9658 56.4812C40.5782 57.3976 40.7281 57.7083 41.1651 58.0801C41.2219 58.1285 41.3076 58.1125 41.3453 58.0473Z" fill="#F3EED8"></path><path d="M40.3031 56.408C40.5395 56.1483 40.7457 56.0023 41.0612 55.8001C41.0726 55.7928 41.0857 55.8069 41.0781 55.8182C40.7047 56.3736 40.5622 56.7829 40.4351 57.5525C40.4271 57.6011 40.3703 57.6225 40.3352 57.5888C40.0955 57.3583 40.0249 57.1636 40.0794 56.8483C40.1081 56.6824 40.1909 56.5314 40.3031 56.408Z" fill="#F5F0DA"></path><path d="M46.8616 57.0311C49.1746 60.4301 50.3469 62.4303 52.1774 66.1974" stroke="black" stroke-width="0.0590015"></path><path d="M45.4404 58.1689C46.407 61.9354 47.1258 63.9556 48.8401 67.3352" stroke="black" stroke-width="0.0590015"></path><path d="M43.8945 58.8328C44.1414 62.8381 44.4552 64.8001 45.2852 67.8727" stroke="black" stroke-width="0.0590015"></path><path d="M39.3206 57.0944C37.0077 60.4934 35.8354 62.4936 34.0049 66.2607" stroke="black" stroke-width="0.0590015"></path><path d="M40.7426 58.2322C39.7761 61.9987 39.0572 64.0188 37.343 67.3985" stroke="black" stroke-width="0.0590015"></path><path d="M42.2874 58.8966C42.0407 62.9019 41.7269 64.864 40.8967 67.9365" stroke="black" stroke-width="0.0590015"></path><path d="M43.3381 34.8746V36.2653C44.4382 35.4229 45.1613 35.0741 46.3273 34.8133C46.6382 34.7438 46.9463 34.6398 47.2008 34.4444C47.5937 34.1426 47.7422 33.8791 47.7409 33.5457C47.7397 33.2343 47.5329 32.9708 47.2837 32.792C46.0867 31.9336 45.1888 31.549 43.3381 31.4293V31.9034C43.6265 31.9656 43.7038 32.0877 43.7708 32.3775L43.3381 34.8746Z" fill="#87A2AF"></path><path d="M43.3524 34.874V36.2647C42.2523 35.4224 41.5293 35.0736 40.3633 34.8129C40.0523 34.7433 39.7442 34.6393 39.4898 34.4439C39.0969 34.1421 38.9484 33.8786 38.9497 33.5451C38.9509 33.2339 39.1577 32.9702 39.4069 32.7915C40.6039 31.9331 41.5018 31.5484 43.3524 31.4287V31.9029C43.064 31.9651 42.9868 32.0871 42.9198 32.377L43.3524 34.874Z" fill="#87A2AF"></path><path d="M45.3166 34.3051C44.5518 34.5489 44.2457 34.8093 43.864 35.443C44.2987 35.0096 44.6534 34.808 45.5605 34.7588C45.7879 34.7464 46.0169 34.7215 46.2313 34.6435C46.4823 34.5523 46.6692 34.4451 46.8547 34.2477C46.9672 34.1279 47.03 33.9597 46.9948 33.7975C46.95 33.591 46.8273 33.5185 46.5564 33.5473C46.4331 33.5604 46.3248 33.6316 46.2398 33.724C45.9754 34.0115 45.7476 34.1558 45.3166 34.3051Z" fill="#154755"></path><path d="M45.04 32.8168C44.2531 33.1059 43.984 33.6701 43.7104 34.9375C44.1426 34.2191 44.48 33.8709 45.2129 33.579C45.3725 33.5155 45.5046 33.3808 45.5214 33.2066C45.5389 33.0264 45.5066 32.9131 45.4012 32.8366C45.298 32.7616 45.1592 32.773 45.04 32.8168Z" fill="#0D4251"></path><path d="M41.3913 34.3051C42.1562 34.5489 42.4623 34.8093 42.844 35.443C42.4093 35.0096 42.0546 34.808 41.1474 34.7588C40.9201 34.7464 40.6911 34.7215 40.4766 34.6435C40.2256 34.5523 40.0387 34.4451 39.8533 34.2477C39.7408 34.1279 39.6779 33.9597 39.7131 33.7975C39.758 33.591 39.8807 33.5185 40.1516 33.5473C40.2749 33.5604 40.3832 33.6316 40.4682 33.724C40.7326 34.0115 40.9603 34.1558 41.3913 34.3051Z" fill="#154755"></path><path d="M41.6689 32.8168C42.4558 33.1059 42.725 33.6701 42.9985 34.9375C42.5664 34.2191 42.229 33.8709 41.4961 33.579C41.3365 33.5155 41.2044 33.3808 41.1876 33.2066C41.1702 33.0264 41.2024 32.9131 41.3077 32.8366C41.411 32.7616 41.5497 32.773 41.6689 32.8168Z" fill="#0D4251"></path><path d="M50.6865 43.9044L51.0122 41.0705L57.8791 35.3718C58.0499 35.23 58.243 35.1178 58.4504 35.0425C61.4021 33.9715 63.0929 33.7596 65.9001 34.3632C61.6484 34.3111 59.9518 35.2879 57.4186 37.7541C54.9146 40.2378 53.4561 41.5953 50.6865 43.9044Z" fill="#EEEDD9"></path><path d="M35.755 43.5944L35.3866 40.766L28.4349 35.1762C28.2618 35.0371 28.0671 34.9279 27.8586 34.8559C24.8911 33.8315 23.1973 33.6464 20.3994 34.2941C24.6499 34.175 26.3611 35.1251 28.931 37.551C31.4722 39.9949 32.951 41.3293 35.755 43.5944Z" fill="#EEEDD9"></path><path d="M48.6522 47.9205C48.4587 48.1586 48.315 48.1623 47.9723 47.8889C47.928 48.202 47.8761 48.3625 47.7251 48.6159C48.0306 49.4226 48.1884 49.7421 48.405 49.6905C48.7403 49.5182 48.8744 49.2796 49.0231 48.6159C48.8485 48.3803 48.7708 48.2259 48.6522 47.9205Z" fill="#F5F3DC" stroke="#235160" stroke-width="0.0590015"></path><path d="M47.9082 49.067C47.8392 48.9318 47.7925 48.81 47.7243 48.6155C47.5303 48.8804 47.3851 48.8187 47.0753 48.3943C47.0921 48.8431 47.0355 49.0599 46.7971 49.3741C46.8867 49.8467 47.0175 50.047 47.3013 50.2468C47.3679 50.2937 47.4575 50.2863 47.5157 50.2289C47.7664 49.9813 47.8733 49.7463 47.9498 49.3169C47.965 49.2315 47.9474 49.144 47.9082 49.067Z" fill="#F4F4DC" stroke="#1E525D" stroke-width="0.0590015"></path><path d="M48.6834 49.4374C48.3768 49.8782 48.2255 49.7504 47.9726 49.2162C47.922 49.5882 47.8771 49.7905 47.6636 50.1012C47.765 50.4994 47.8724 50.7055 48.1814 50.9204C48.2414 50.9622 48.3206 50.9598 48.3793 50.9161C48.7566 50.635 48.8716 50.4086 48.9307 49.9748L48.6834 49.4374Z" fill="#FCFFE9" stroke="#1E5057" stroke-width="0.0590015"></path><path d="M48.6836 49.4373C48.8926 49.1327 48.9486 48.9489 49.0235 48.6155C49.2231 48.8069 49.3257 48.8881 49.4081 48.9005C49.4304 48.904 49.4496 48.9255 49.4437 48.9478L49.1163 50.1959C48.8917 49.9105 48.8037 49.7432 48.6836 49.4373Z" fill="#F6F3D8" stroke="#285761" stroke-width="0.0590015"></path><path d="M49.1169 50.196L48.9315 49.9748C48.8712 50.3345 48.8002 50.509 48.5916 50.7649L48.8079 51.1758C48.9179 50.7931 48.9823 50.5784 49.1169 50.196Z" fill="#F5F3D9" stroke="#1E4E5B" stroke-width="0.0590015"></path><path d="M48.5904 50.7654C48.3475 51.031 48.2052 51.0979 47.9105 50.6705L47.7251 51.0182C47.81 51.5464 47.9118 51.8172 48.1956 52.049C48.2797 52.1178 48.4018 52.1102 48.4745 52.0289C48.6605 51.8206 48.7309 51.5869 48.8068 51.1762C48.697 51.0814 48.653 50.9827 48.5904 50.7654Z" fill="#F5F3DC" stroke="#245460" stroke-width="0.0590015"></path><path d="M47.2019 51.2181C46.962 50.9679 46.8644 50.7629 46.7664 50.4176C46.8918 50.2763 46.9486 50.1891 47.0445 50.0067C47.3448 50.3921 47.4763 50.3906 47.6321 50.0984C47.6411 50.0816 47.667 50.0867 47.669 50.1058C47.6962 50.3597 47.7506 50.4939 47.9099 50.6704C47.7805 50.9181 47.681 51.0665 47.5128 51.2266C47.4243 51.3108 47.2864 51.3064 47.2019 51.2181Z" fill="#F4F4DC" stroke="#24555C" stroke-width="0.0590015"></path><path d="M46.312 50.5213C46.1228 50.318 46.0062 50.134 45.8711 49.7848C46.0191 49.6187 46.1046 49.4706 46.1183 49.1842C46.4086 49.569 46.5525 49.6135 46.7983 49.3423C46.8262 49.6509 46.885 49.793 47.0456 50.006C46.9069 50.2502 46.7969 50.3913 46.6214 50.5409C46.5297 50.6191 46.3944 50.6097 46.312 50.5213Z" fill="#F8F1DC" stroke="#20525D" stroke-width="0.0590015"></path><path d="M49.4828 47.4146C49.3795 47.4103 49.2725 47.2903 48.994 47.0037C48.9153 47.3968 48.8265 47.5779 48.6541 47.8887C48.816 48.4219 49.0185 48.6102 49.3534 48.9001C49.3877 48.9298 49.4407 48.9131 49.4529 48.8688C49.6365 48.2009 49.7201 47.8082 49.8537 47.0669C49.7104 47.2986 49.6298 47.3834 49.4828 47.4146Z" fill="#F5F3DA" stroke="#285761" stroke-width="0.0590015"></path><path d="M49.9003 45.3624C49.4831 45.1342 49.1816 45.339 48.6541 46.0554C48.7055 46.5954 48.8304 46.902 49.3421 47.3287C49.4273 47.3999 49.5492 47.3999 49.6412 47.3381C49.664 47.3229 49.6833 47.3096 49.7014 47.2954C49.8322 47.1926 49.8691 47.0114 49.8908 46.844C49.9446 46.4272 50.0033 46.0492 50.034 45.6287C50.0418 45.5206 49.9939 45.4135 49.9003 45.3624Z" fill="#F5F3DA" stroke="#245462" stroke-width="0.0590015"></path><path d="M48.6524 46.0552L47.6943 47.2247C47.8213 47.723 47.9501 47.9606 48.3501 48.1041C48.4201 48.1293 48.4974 48.1033 48.5421 48.0427C48.787 47.7112 48.8875 47.461 48.9923 47.0035C48.7685 46.7039 48.6887 46.5005 48.6524 46.0552Z" fill="#F4F4DB" stroke="#285761" stroke-width="0.0590015"></path><path d="M47.6944 47.225L46.9526 47.9836C47.0669 48.4265 47.1782 48.6233 47.4354 48.7573C47.4978 48.79 47.5738 48.7759 47.6233 48.7251C47.842 48.5011 47.9202 48.2883 47.9725 47.8572C47.7991 47.693 47.7422 47.5509 47.6944 47.225Z" fill="#F5F3DC" stroke="#134754" stroke-width="0.0590015"></path><path d="M46.9529 47.9836L45.9949 48.837C46.1037 49.1797 46.2072 49.3602 46.3822 49.472C46.497 49.5455 46.6454 49.5064 46.7373 49.4046C47.1137 48.9875 47.1621 48.6454 46.9529 47.9836Z" fill="#F8F1DC" stroke="#295464" stroke-width="0.0590015"></path><path d="M45.9947 48.8369L45.1294 49.5323C45.2069 49.7881 45.2916 49.9134 45.4467 49.9815C45.5716 50.0363 45.7143 49.9831 45.8059 49.8805C46.1195 49.5294 46.1679 49.2737 45.9947 48.8369Z" fill="#F8F1DC" stroke="#20525D" stroke-width="0.0590015"></path><path d="M45.1293 49.5327L44.4185 50.0068C44.4693 50.1516 44.5225 50.2366 44.6464 50.2961C44.751 50.3463 44.8744 50.3123 44.9591 50.232C45.2045 49.9996 45.2611 49.8273 45.1293 49.5327Z" fill="#F8F1DC" stroke="#2B5664" stroke-width="0.0590015"></path><path d="M44.4186 50.0067L43.8005 50.386C43.9551 50.6704 44.066 50.6736 44.295 50.6072C44.4664 50.3761 44.4876 50.2456 44.4186 50.0067Z" fill="#F8F1DC" stroke="#26545E" stroke-width="0.0590015"></path><path d="M43.2131 51.2707V50.765L43.7694 50.4174C43.8325 50.4916 43.8862 50.5436 43.9239 50.6386C43.6968 50.9883 43.5535 51.1502 43.2131 51.2707Z" fill="#F8F1DC" stroke="#1E5059" stroke-width="0.0590015"></path><path d="M37.805 47.92C37.9985 48.158 38.1422 48.1618 38.4849 47.8884C38.5292 48.2015 38.5812 48.362 38.7322 48.6153C38.4267 49.4221 38.2689 49.7416 38.0523 49.69C37.7168 49.5177 37.5827 49.2791 37.4341 48.6153C37.6087 48.3797 37.6863 48.2253 37.805 47.92Z" fill="#F5F3DC" stroke="#235160" stroke-width="0.0590015"></path><path d="M38.5492 49.067C38.6182 48.9318 38.665 48.81 38.7331 48.6155C38.927 48.8804 39.0722 48.8187 39.3821 48.3943C39.3652 48.8431 39.422 49.0599 39.6602 49.3741C39.5707 49.8467 39.4398 50.047 39.1561 50.2468C39.0896 50.2937 38.9998 50.2863 38.9417 50.2289C38.6911 49.9813 38.584 49.7463 38.5076 49.3169C38.4924 49.2315 38.5099 49.144 38.5492 49.067Z" fill="#F4F4DC" stroke="#1E525D" stroke-width="0.0590015"></path><path d="M37.7736 49.4369C38.0802 49.8777 38.2315 49.75 38.4845 49.2156C38.5351 49.5876 38.5801 49.7899 38.7936 50.1006C38.6922 50.4989 38.5847 50.7049 38.2757 50.9199C38.2157 50.9616 38.1364 50.9593 38.0777 50.9156C37.7006 50.6344 37.5856 50.408 37.5264 49.9742L37.7736 49.4369Z" fill="#FCFFE9" stroke="#1E5057" stroke-width="0.0590015"></path><path d="M37.7746 49.4368C37.5656 49.1322 37.5096 48.9483 37.4347 48.615C37.2351 48.8065 37.1325 48.8876 37.0501 48.9C37.0278 48.9034 37.0087 48.925 37.0145 48.9473L37.342 50.1955C37.5667 49.9099 37.6547 49.7427 37.7746 49.4368Z" fill="#F6F3D8" stroke="#285761" stroke-width="0.0590015"></path><path d="M37.3413 50.1955L37.5267 49.9742C37.5872 50.334 37.658 50.5084 37.8667 50.7644L37.6504 51.1753C37.5404 50.7926 37.4759 50.5779 37.3413 50.1955Z" fill="#F5F3D9" stroke="#1E4E5B" stroke-width="0.0590015"></path><path d="M37.867 50.7648C38.1098 51.0304 38.2522 51.0974 38.5469 50.67L38.7323 51.0177C38.6474 51.5459 38.5455 51.8166 38.2618 52.0485C38.1776 52.1173 38.0555 52.1097 37.9828 52.0284C37.7968 51.8201 37.7265 51.5864 37.6506 51.1757C37.7603 51.0809 37.8043 50.9823 37.867 50.7648Z" fill="#F5F3DC" stroke="#245460" stroke-width="0.0590015"></path><path d="M39.2554 51.2176C39.4952 50.9673 39.5928 50.7624 39.6908 50.417C39.5655 50.2758 39.5087 50.1886 39.4127 50.0061C39.1124 50.3915 38.9809 50.39 38.8251 50.0979C38.8162 50.081 38.7902 50.0862 38.7882 50.1053C38.7611 50.3592 38.7067 50.4933 38.5474 50.6699C38.6767 50.9176 38.7763 51.066 38.9445 51.2261C39.033 51.3103 39.1708 51.3059 39.2554 51.2176Z" fill="#F4F4DC" stroke="#24555C" stroke-width="0.0590015"></path><path d="M40.146 50.5207C40.3352 50.3176 40.4519 50.1334 40.587 49.7843C40.4389 49.6182 40.3536 49.4701 40.3397 49.1837C40.0494 49.5685 39.9056 49.6129 39.6598 49.3418C39.6319 49.6504 39.5731 49.7925 39.4126 50.0055C39.5512 50.2497 39.6612 50.3908 39.8367 50.5404C39.9283 50.6186 40.0637 50.6091 40.146 50.5207Z" fill="#F8F1DC" stroke="#20525D" stroke-width="0.0590015"></path><path d="M36.9766 47.414C37.0799 47.4097 37.1869 47.2897 37.4654 47.0031C37.5441 47.3962 37.6329 47.5773 37.8053 47.8881C37.6434 48.4214 37.4409 48.6097 37.106 48.8996C37.0717 48.9292 37.0187 48.9125 37.0065 48.8684C36.8229 48.2004 36.7393 47.8078 36.6057 47.0664C36.749 47.2981 36.8296 47.3829 36.9766 47.414Z" fill="#F5F3DA" stroke="#285761" stroke-width="0.0590015"></path><path d="M36.5591 45.3618C36.9762 45.1338 37.2777 45.3385 37.8053 46.0548C37.7539 46.5948 37.629 46.9015 37.1172 47.3282C37.0321 47.3994 36.9101 47.3994 36.8181 47.3375C36.7954 47.3223 36.776 47.309 36.758 47.2949C36.6272 47.192 36.5903 47.0109 36.5686 46.8436C36.5148 46.4267 36.4561 46.0487 36.4254 45.6282C36.4175 45.5201 36.4655 45.4129 36.5591 45.3618Z" fill="#F5F3DA" stroke="#245462" stroke-width="0.0590015"></path><path d="M37.8049 46.0547L38.7629 47.2242C38.6359 47.7225 38.5071 47.96 38.107 48.1036C38.0372 48.1288 37.9598 48.1027 37.9151 48.0422C37.6702 47.7107 37.5697 47.4604 37.4648 47.0029C37.6887 46.7034 37.7684 46.5 37.8049 46.0547Z" fill="#F4F4DB" stroke="#285761" stroke-width="0.0590015"></path><path d="M38.764 47.2245L39.5058 47.9831C39.3914 48.426 39.2801 48.6227 39.023 48.7569C38.9605 48.7894 38.8847 48.7755 38.835 48.7247C38.6164 48.5006 38.5381 48.2879 38.4858 47.8566C38.6592 47.6925 38.7162 47.5503 38.764 47.2245Z" fill="#F5F3DC" stroke="#134754" stroke-width="0.0590015"></path><path d="M39.5051 47.9831L40.4632 48.8365C40.3543 49.1792 40.2509 49.3596 40.0759 49.4715C39.9611 49.545 39.8126 49.5059 39.7207 49.4041C39.3443 48.987 39.2959 48.6449 39.5051 47.9831Z" fill="#F8F1DC" stroke="#295464" stroke-width="0.0590015"></path><path d="M40.4625 48.8364L41.3278 49.5317C41.2503 49.7876 41.1657 49.9128 41.0105 49.981C40.8856 50.0357 40.7429 49.9826 40.6514 49.8799C40.3378 49.5288 40.2894 49.2733 40.4625 48.8364Z" fill="#F8F1DC" stroke="#20525D" stroke-width="0.0590015"></path><path d="M41.3289 49.5316L42.0397 50.0057C41.9889 50.1506 41.9357 50.2355 41.8117 50.2951C41.7072 50.3453 41.5838 50.3112 41.4991 50.2309C41.2537 49.9985 41.1971 49.8263 41.3289 49.5316Z" fill="#F8F1DC" stroke="#2B5664" stroke-width="0.0590015"></path><path d="M42.0396 50.0061L42.6578 50.3854C42.5032 50.6699 42.3923 50.6731 42.1632 50.6067C41.9918 50.3757 41.9708 50.2451 42.0396 50.0061Z" fill="#F8F1DC" stroke="#26545E" stroke-width="0.0590015"></path><path d="M43.245 51.2702V50.7645L42.6887 50.4168C42.6256 50.4911 42.5719 50.543 42.5342 50.6381C42.7614 50.9878 42.9047 51.1497 43.245 51.2702Z" fill="#F8F1DC" stroke="#1E5059" stroke-width="0.0590015"></path><path d="M39.9387 56.3989C39.0667 55.066 38.6949 54.197 38.1839 52.5985C38.161 52.5266 38.1824 52.4475 38.2367 52.3961C38.5304 52.1185 38.6848 51.8872 38.8569 51.3733L39.0443 51.4882C39.1161 51.5323 39.2083 51.5219 39.2672 51.461C39.5116 51.209 39.6296 51.0336 39.784 50.7411H40.1241C40.3534 50.5435 40.4452 50.4047 40.5877 50.1406C40.9745 50.3102 41.191 50.3584 41.5766 50.3619C41.9764 50.8321 42.1502 50.8771 42.411 50.7411L43.118 51.357C43.1904 51.4201 43.2977 51.4169 43.3665 51.3495L43.9873 50.7411C44.4223 50.8732 44.6081 50.7252 44.9144 50.3619C45.3264 50.3669 45.5345 50.3146 45.8725 50.1406C46.1999 50.7672 46.3785 50.9099 46.7069 50.7411C46.8547 51.0681 46.9847 51.2419 47.2241 51.4695C47.2834 51.5259 47.3723 51.5339 47.4417 51.4914L47.6341 51.3733C47.7446 51.8496 47.8692 52.095 48.1874 52.3932C48.244 52.4462 48.2661 52.5288 48.2402 52.6029C47.6789 54.2112 47.2877 55.068 46.4906 56.3989L45.6934 55.7001C45.6481 55.6604 45.6075 55.6147 45.5722 55.5656C44.8396 54.5483 44.3165 54.4566 43.2146 55.2611C42.0745 54.4544 41.5118 54.3703 40.804 55.6404L39.9387 56.3989Z" fill="#93ADB6"></path><path d="M43.4014 57.2993C43.415 55.7986 43.481 55.3035 43.7359 55.3246C44.0958 55.3126 44.2589 56.0084 44.5167 57.1625C44.5546 57.3326 44.55 57.512 44.4843 57.673C44.3846 57.9172 44.2738 58.0798 44.0845 58.2521C44.015 58.3153 43.9093 58.3093 43.8449 58.2407C43.639 58.0219 43.5225 57.8432 43.4327 57.5414C43.4095 57.4632 43.4007 57.3809 43.4014 57.2993Z" fill="#F6F1DD"></path><path d="M45.1458 58.0473C44.6696 57.2238 44.5148 56.6531 44.5934 55.5663C44.5971 55.5165 44.6533 55.4911 44.6917 55.522C45.0874 55.8399 45.2901 56.0592 45.5252 56.4812C45.9129 57.3976 45.7629 57.7083 45.326 58.0801C45.2691 58.1285 45.1835 58.1125 45.1458 58.0473Z" fill="#F3EED8"></path><path d="M46.1877 56.4075C45.9512 56.1478 45.7451 56.0018 45.4296 55.7996C45.4182 55.7923 45.4051 55.8063 45.4126 55.8177C45.7861 56.3731 45.9286 56.7825 46.0557 57.552C46.0636 57.6005 46.1205 57.622 46.1556 57.5882C46.3953 57.3578 46.4659 57.1631 46.4114 56.8478C46.3827 56.6819 46.2999 56.5308 46.1877 56.4075Z" fill="#F5F0DA"></path><path d="M70.5666 31.4293L43.0834 11.9196L15.7092 31.4293" stroke="#163841" stroke-width="0.708018"></path><path d="M23.3924 73.5201C23.3924 72.657 23.277 71.9861 23.0463 71.5074C22.8221 71.0218 22.5089 70.7791 22.1067 70.7791C21.7111 70.7791 21.398 71.0218 21.1672 71.5074C20.9364 71.9928 20.821 72.6705 20.821 73.5404C20.821 74.4102 20.9298 75.0811 21.1474 75.5532C21.3716 76.0251 21.6913 76.2612 22.1067 76.2612C22.9638 76.2612 23.3924 75.3475 23.3924 73.5201ZM24.9846 73.5808C24.9846 74.5046 24.7177 75.216 24.1836 75.715C23.6495 76.2139 22.9539 76.4635 22.0968 76.4635C21.2397 76.4635 20.5474 76.2174 20.0199 75.725C19.4926 75.2261 19.2288 74.5148 19.2288 73.591C19.2288 72.6604 19.4926 71.9254 20.0199 71.386C20.5474 70.8465 21.2463 70.5768 22.1166 70.5768C22.9935 70.5768 23.6891 70.8465 24.2034 71.386C24.7242 71.9187 24.9846 72.6503 24.9846 73.5808ZM30.3258 73.2673H30.6324C31.4302 73.2673 31.829 72.8795 31.829 72.104C31.829 71.3016 31.4302 70.9005 30.6324 70.9005H30.3258V73.2673ZM30.3258 76.16H30.8796C31.2752 76.16 31.5884 76.0555 31.8192 75.8464C32.0499 75.6374 32.1653 75.334 32.1653 74.9361C32.1653 74.3765 32.0301 73.9921 31.7599 73.7831C31.4895 73.574 31.117 73.4696 30.6423 73.4696H30.3258V76.16ZM28.3479 76.3623V76.16H28.8423V70.9005H28.3479V70.6982H30.84C31.6576 70.6982 32.2576 70.8262 32.64 71.0825C33.029 71.3387 33.2235 71.6894 33.2235 72.1345C33.2235 72.4918 33.1081 72.7851 32.8774 73.0144C32.6532 73.237 32.3499 73.3482 31.9675 73.3482V73.4088C32.4422 73.4088 32.8411 73.5404 33.1642 73.8033C33.4873 74.0596 33.6488 74.4271 33.6488 74.9058C33.6488 75.3845 33.4609 75.7487 33.0851 75.9981C32.7092 76.2409 32.1719 76.3623 31.473 76.3623H28.3479ZM39.9753 76.16C40.9642 76.16 41.4587 75.5868 41.4587 74.4405H41.6565V76.3623H37.0083V76.16H37.5028V70.9005H37.0083V70.6982H41.5576V72.4176H41.3598C41.3598 71.8175 41.2412 71.4163 41.0038 71.214C40.773 71.005 40.3973 70.9005 39.8764 70.9005H38.9863V73.3279H39.3819C39.8566 73.3279 40.1566 73.2673 40.2818 73.1459C40.4071 73.0245 40.4698 72.7817 40.4698 72.4176H40.6676V74.4405H40.4698C40.4698 74.0629 40.4071 73.8168 40.2818 73.7022C40.1566 73.5875 39.8566 73.5302 39.3819 73.5302H38.9863V76.16H39.9753ZM47.0457 70.9005V73.51C47.705 73.51 48.1467 73.4123 48.3709 73.2167C48.5951 73.0212 48.7072 72.6941 48.7072 72.2356C48.7072 71.777 48.5918 71.4399 48.3611 71.2241C48.1303 71.0084 47.6918 70.9005 47.0457 70.9005ZM50.9323 76.4635H50.4973C49.6731 76.4635 49.0995 76.2814 48.7764 75.9173C48.5192 75.6341 48.3446 75.2598 48.2522 74.7945C48.2127 74.599 48.1699 74.4204 48.1237 74.2585C48.0182 73.8944 47.8039 73.7123 47.4808 73.7123H47.0457V76.16H47.5401V76.3623H45.0678V76.16H45.5622V70.9005H45.0678V70.6982H47.6688C49.35 70.6982 50.1906 71.2005 50.1906 72.2052C50.1906 72.6031 50.0489 72.9267 49.7654 73.1762C49.4819 73.4258 49.1192 73.5505 48.6775 73.5505V73.6213C49.3368 73.6213 49.795 74.0664 50.0522 74.9564C50.184 75.4284 50.3159 75.7655 50.4478 75.9678C50.5862 76.1634 50.7477 76.2612 50.9323 76.2612V76.4635ZM57.1611 76.16C58.1501 76.16 58.6446 75.5868 58.6446 74.4405H58.8424V76.3623H54.1942V76.16H54.6887V70.9005H54.1942V70.6982H58.7435V72.4176H58.5457C58.5457 71.8175 58.427 71.4163 58.1896 71.214C57.9588 71.005 57.583 70.9005 57.0622 70.9005H56.1721V73.3279H56.5677C57.0424 73.3279 57.3424 73.2673 57.4677 73.1459C57.593 73.0245 57.6555 72.7817 57.6555 72.4176H57.8533V74.4405H57.6555C57.6555 74.0629 57.593 73.8168 57.4677 73.7022C57.3424 73.5875 57.0424 73.5302 56.5677 73.5302H56.1721V76.16H57.1611ZM67.1193 76.3623C67.1193 76.2072 67.0765 76.0791 66.9908 75.978C66.9051 75.8701 66.793 75.8161 66.6545 75.8161C66.5226 75.8161 66.3842 75.8734 66.2391 75.9881C66.1007 76.1027 65.9358 76.2207 65.7446 76.3421C65.56 76.4567 65.3358 76.514 65.0722 76.514C64.1755 76.514 63.4799 76.278 62.9854 75.806C62.4975 75.334 62.2535 74.6091 62.2535 73.6314C62.2535 71.5883 63.1864 70.5666 65.0524 70.5666C65.3886 70.5666 65.7314 70.651 66.0809 70.8195C66.4369 70.9881 66.6545 71.0724 66.7336 71.0724C66.8128 71.0724 66.8787 71.032 66.9314 70.9511C66.9842 70.8633 67.0106 70.7791 67.0106 70.6982H67.1984V72.7514H67.0006C67.0006 72.2389 66.8028 71.7805 66.4072 71.3758C66.0183 70.9712 65.5666 70.7689 65.0524 70.7689C64.6568 70.7689 64.3567 70.9881 64.1523 71.4264C63.948 71.8579 63.8458 72.5761 63.8458 73.5808C63.8458 74.5788 63.948 75.2834 64.1523 75.6947C64.3633 76.106 64.67 76.3117 65.0722 76.3117C65.7051 76.3117 66.0215 75.7352 66.0215 74.5821V73.8336H65.3985V73.6314H67.7721V73.8336H67.3073V76.3623H67.1193Z" fill="white"></path></g><defs><clipPath id="clip0_140_769"><rect width="88" height="90" fill="white"></rect></clipPath></defs></svg>